<?xml version="1.0" standalone="no"?>
<!DOCTYPE svg PUBLIC "-//W3C//DTD SVG 20010904//EN"
 "http://www.w3.org/TR/2001/REC-SVG-20010904/DTD/svg10.dtd">
<svg version="1.0" xmlns="http://www.w3.org/2000/svg"
 width="300.000000pt" height="300.000000pt" viewBox="0 0 300.000000 300.000000"
 preserveAspectRatio="xMidYMid meet">
<metadata>
Created by potrace 1.10, written by Peter Selinger 2001-2011
</metadata>
<g transform="translate(0.000000,300.000000) scale(0.100000,-0.100000)"
fill="#000000" stroke="none">
<path d="M1230 2975 c-139 -26 -254 -65 -395 -135 -304 -151 -524 -371 -675
-675 -96 -193 -151 -397 -149 -554 0 -66 0 -66 13 -31 7 19 21 78 30 132 83
488 366 877 792 1091 143 72 263 109 453 142 52 9 108 22 125 30 30 13 28 13
-44 13 -41 0 -109 -6 -150 -13z"/>
<path d="M1576 2975 c17 -8 73 -21 125 -30 292 -50 500 -140 709 -306 174
-138 296 -289 395 -489 76 -152 104 -244 145 -460 27 -143 39 -168 40 -79 0
159 -54 362 -150 554 -151 304 -371 524 -675 675 -193 96 -398 151 -554 149
-64 -1 -65 -1 -35 -14z"/>
<path d="M1410 2921 c-200 -65 -360 -328 -440 -726 -13 -60 -26 -117 -31 -126
-5 -10 -50 -24 -138 -42 -470 -98 -731 -284 -731 -524 0 -112 27 -171 119
-263 57 -57 98 -87 166 -122 138 -71 315 -127 527 -168 47 -9 59 -16 63 -33 2
-12 16 -76 31 -142 80 -367 213 -600 392 -683 82 -38 184 -38 263 1 183 89
320 334 395 704 14 71 28 131 32 135 4 4 63 19 132 33 466 98 724 278 738 515
7 123 -42 218 -163 317 -114 93 -346 186 -580 233 -60 12 -115 27 -121 33 -6
7 -24 68 -39 137 -66 304 -153 497 -281 623 -70 70 -142 101 -234 104 -41 1
-86 -1 -100 -6z m218 -62 c162 -81 296 -335 367 -699 14 -74 31 -138 38 -142
7 -4 23 -8 36 -8 13 0 76 -12 140 -26 435 -96 681 -269 681 -478 0 -80 -12
-119 -56 -184 -95 -137 -339 -254 -669 -319 -77 -15 -141 -28 -142 -28 -2 -1
-10 -42 -18 -91 -37 -211 -108 -426 -185 -556 -139 -233 -353 -290 -529 -142
-117 98 -231 355 -288 651 l-27 140 -76 12 c-278 45 -547 150 -672 261 -118
105 -155 250 -95 372 58 119 218 229 438 302 107 35 318 86 360 86 38 0 45 11
58 85 37 209 107 428 177 552 118 211 299 294 462 212z"/>
<path d="M1457 2610 c-38 -33 -94 -132 -133 -237 -22 -58 -84 -295 -84 -320 0
-5 46 -5 103 -1 56 5 173 5 260 2 l158 -6 -7 28 c-61 259 -102 377 -163 472
-35 54 -74 92 -93 92 -4 0 -23 -13 -41 -30z m93 -70 c56 -79 157 -364 148
-422 -3 -22 -4 -22 -201 -22 -110 -1 -201 2 -203 6 -7 10 53 227 81 298 32 78
59 125 93 162 29 31 47 26 82 -22z"/>
<path d="M1259 1793 c-43 -4 -47 -6 -53 -35 -10 -50 -7 -467 4 -579 33 -327
108 -602 204 -742 25 -37 53 -66 69 -71 24 -9 32 -5 62 24 97 94 205 415 230
685 7 80 20 121 41 129 8 3 56 11 107 17 302 36 591 134 686 233 31 32 33 38
23 60 -6 14 -31 40 -54 57 -142 105 -449 188 -803 219 -112 9 -413 11 -516 3z
m641 -58 c317 -40 598 -129 675 -215 l20 -22 -43 -38 c-86 -76 -320 -153 -582
-191 -80 -11 -155 -27 -167 -35 -41 -26 -55 -61 -69 -176 -34 -262 -125 -543
-203 -625 -29 -31 -46 -29 -74 9 -92 122 -170 391 -202 691 -16 152 -21 582
-7 604 4 6 28 14 52 16 88 9 477 -2 600 -18z"/>
<path d="M805 1726 c-205 -53 -333 -107 -405 -173 -22 -19 -40 -44 -40 -55 0
-40 93 -107 223 -160 62 -26 322 -98 352 -98 6 0 10 91 10 260 0 143 -2 260
-5 259 -3 0 -63 -15 -135 -33z m93 -228 l-3 -203 -34 3 c-104 11 -360 110
-426 165 -37 31 -30 47 38 94 73 49 330 140 405 142 l22 1 -2 -202z"/>
<path d="M11 1389 c-2 -157 53 -361 149 -554 151 -304 371 -524 675 -675 192
-96 395 -150 554 -150 95 1 60 16 -105 46 -310 56 -564 179 -776 374 -241 222
-390 505 -457 866 -27 151 -40 179 -40 93z"/>
<path d="M2977 1435 c-5 -11 -20 -81 -33 -155 -92 -499 -366 -870 -803 -1090
-116 -58 -266 -105 -425 -134 -165 -30 -200 -45 -105 -46 159 0 362 54 554
150 304 151 524 371 675 675 73 146 110 259 136 407 16 91 16 231 1 193z"/>
</g>
</svg>
